<svg width="182" height="26" viewBox="0 0 182 26" fill="none" xmlns="http://www.w3.org/2000/svg">
<path d="M35.7656 25.4748H60.3795V20.4839H40.693V15.0693H58.4773V10.0784H40.693V5.47629H60.4855V0.488281H35.7656V25.4748Z" fill="black"/>
<path d="M60.5214 25.6194H35.6211V0.342773H60.6274V5.62386H40.8349V9.91836H58.6221V15.1994H40.8349V20.3412H60.5214V25.6194ZM35.9047 25.3293H60.2378V20.6285H40.5484V14.9238H58.3385V10.2085H40.5484V5.33369H60.3467V0.632943H35.9047V25.3293Z" fill="black"/>
<path d="M96.7422 25.4512H121.27V20.4806H101.652V15.0777H119.379V10.1013H101.652V5.52529H121.376V0.554688H96.7422V25.4512Z" fill="black"/>
<path d="M121.414 25.5872H96.5996V0.40918H121.523V5.66995H101.796V9.96156H119.52V15.2223H101.796V20.3351H121.414V25.5872ZM96.8832 25.297H121.13V20.6224H101.513V14.938H119.237V10.2517H101.513V5.37978H121.234V0.693546H96.8832V25.297Z" fill="black"/>
<path d="M148.846 0.722955L130.827 10.5771V0.450195H125.92V25.5266H130.827V16.218L139.187 11.6014L145.615 25.4889L151.015 25.4918L143.501 9.22202L151.07 5.05228L148.846 0.722955Z" fill="black"/>
<path d="M151.237 25.6339H145.528L145.496 25.5527L139.122 11.8045L130.964 16.3021V25.631H125.781V0.342773H130.964V10.3391L148.905 0.528482L151.257 5.11026L143.683 9.2858L151.237 25.6339ZM145.703 25.3438H150.793L143.313 9.16392L150.879 4.98548L148.788 0.923112L130.686 10.8179V0.589417H126.062V25.3873H130.686V16.1338L139.251 11.4069L145.703 25.3438Z" fill="black"/>
<path d="M169.896 0.501953H168.464L155.891 25.4884H161.417L163.74 20.8457H173.944L176.09 25.4884H181.533L169.896 0.501953ZM166.27 15.8606L169.051 10.301L171.63 15.8606H166.27Z" fill="black"/>
<path d="M181.767 25.6341H175.995L173.852 20.9914H163.826L161.502 25.6341H155.658L168.366 0.360352H169.985L181.767 25.6341ZM176.178 25.3439H181.335L169.807 0.633111H168.541L156.128 25.341H161.336L163.657 20.6983H174.033L176.178 25.3439ZM171.844 16.0121H166.043L169.057 9.97657L171.844 16.0121ZM166.501 15.7219H171.397L169.045 10.6323L166.501 15.7219Z" fill="black"/>
<path d="M4.33435 0.417969L0.0744833 4.63413H0.011459V4.70087L0 4.71538L0.011459 4.72989V6.27649H2.66707V6.95549H0.011459V8.1858H1.50112V8.8677H0.011459V10.0922H1.50112V10.7712H0.011459V12.0015H2.66707V12.6834H0.011459V13.9108H1.50112V14.5898H0.011459V15.8173H1.50112V16.4963H0.011459V17.7295H2.66707V18.4056H0.011459V19.6388H1.50112V20.3149H0.011459V21.5452H1.50112V22.2271H0.011459V23.4545H2.66707V24.1335H0.011459V25.6337H6.07612V11.0034L14.974 20.2046L19.3084 15.9072L4.33435 0.417969Z" fill="black"/>
<path d="M30.0801 4.66948V4.59404L30.0027 4.59113L25.7515 0.37207L15.6934 10.8182L19.8816 15.2433L24.0097 10.9604V25.6342H30.0801V4.67528H30.083L30.0801 4.66948Z" fill="black"/>
<path d="M91.4106 8.03227C91.4114 6.05255 90.6376 4.15317 89.2588 2.75004C87.88 1.3469 86.0084 0.554342 84.0539 0.545898H66.9199V15.478H71.8244H82.1632L86.7468 25.454H91.9578L87.0877 14.8048C88.3734 14.2148 89.4632 13.2607 90.2257 12.0574C90.9881 10.8542 91.3907 9.45329 91.3848 8.02356L91.4106 8.03227ZM84.0282 10.5103H71.8244V5.5136H84.0539C84.3791 5.51435 84.7008 5.58021 85.0007 5.70737C85.3006 5.83454 85.5728 6.0205 85.8015 6.25457C86.0302 6.48865 86.2109 6.76621 86.3333 7.07129C86.4557 7.37638 86.5174 7.70296 86.5148 8.03227C86.5174 8.3591 86.4559 8.6832 86.3338 8.98575C86.2118 9.28829 86.0315 9.56324 85.8036 9.79462C85.5757 10.026 85.3047 10.2092 85.0063 10.3336C84.7079 10.4579 84.3881 10.521 84.0654 10.519" fill="black"/>
<path d="M92.1935 25.6055H86.6588L82.0752 15.6324H66.7832V0.401367H84.0605C85.7625 0.407426 87.4122 0.997906 88.74 2.07635C90.0679 3.15479 90.9955 4.65746 91.3712 6.33888C91.747 8.02031 91.5487 9.78111 90.8088 11.3337C90.069 12.8862 88.8312 14.1387 87.2976 14.8866L92.1935 25.6055ZM86.8393 25.3153H91.7495L86.9109 14.7444L87.0427 14.6806C88.5421 13.9856 89.7621 12.7925 90.5005 11.2991C91.2389 9.80564 91.4513 8.10149 91.1026 6.46901C90.754 4.83653 89.8651 3.37372 88.5833 2.32298C87.3015 1.27223 85.7037 0.696625 84.0548 0.691537H67.0611V15.3364H82.2442L86.8393 25.3153ZM84.0548 10.6647H71.6877V5.37197H84.0548C84.7442 5.38115 85.4021 5.666 85.885 6.16443C86.368 6.66286 86.6369 7.33445 86.633 8.03282C86.6361 8.37772 86.5716 8.71981 86.4434 9.03934C86.3152 9.35887 86.1257 9.64951 85.886 9.89447C85.6463 10.1394 85.3611 10.3339 85.0467 10.4666C84.7324 10.5993 84.3953 10.6676 84.0548 10.6676V10.6647ZM71.9684 10.3745H84.0548C84.3589 10.3768 84.6604 10.3178 84.9417 10.2009C85.2231 10.084 85.4787 9.91157 85.6936 9.69363C85.9085 9.47568 86.0784 9.21659 86.1935 8.93146C86.3085 8.64632 86.3664 8.34084 86.3637 8.03282C86.3668 7.40838 86.1256 6.80812 85.6929 6.36332C85.2602 5.91851 84.6712 5.66537 84.0548 5.65924H71.9684V10.3745Z" fill="black"/>
<path d="M68.2951 16.7256L65.0293 19.784L66.0291 24.1742L70.2775 25.4945L73.5319 22.4216L72.5435 18.043L68.2951 16.7256ZM70.945 21.6585C70.8499 21.9709 70.6655 22.2478 70.4151 22.4542C70.1647 22.6605 69.8596 22.7871 69.5382 22.8178C69.2168 22.8486 68.8936 22.7822 68.6095 22.627C68.3254 22.4718 68.0931 22.2348 67.9419 21.9459C67.7907 21.657 67.7274 21.3293 67.76 21.004C67.7927 20.6787 67.9198 20.3705 68.1252 20.1183C68.3307 19.8662 68.6054 19.6814 68.9145 19.5872C69.2237 19.4931 69.5534 19.4939 69.8621 19.5896C70.0679 19.6525 70.2593 19.7561 70.4253 19.8944C70.5914 20.0327 70.7287 20.203 70.8294 20.3954C70.9301 20.5877 70.9921 20.7984 71.012 21.0152C71.0318 21.232 71.009 21.4506 70.945 21.6585Z" fill="black"/>
<path d="M70.3213 25.6575L65.921 24.2908L64.8926 19.7496L68.2615 16.5723L72.6617 17.9361L73.6902 22.4801L70.3213 25.6575ZM66.1531 24.076L70.2525 25.3499L73.4037 22.3873L72.4412 18.1537L68.3303 16.8827L65.1791 19.8367L66.1531 24.076ZM69.3873 22.9763C69.2107 22.9765 69.035 22.9501 68.866 22.898C68.4583 22.7742 68.1085 22.5056 67.8806 22.1416C67.6528 21.7776 67.5623 21.3425 67.6257 20.9163C67.6891 20.4901 67.9021 20.1013 68.2258 19.8214C68.5494 19.5416 68.9618 19.3893 69.3873 19.3927C69.563 19.3931 69.7377 19.4195 69.9059 19.4711C70.3094 19.5984 70.6546 19.8679 70.8791 20.2306C71.1036 20.5933 71.1926 21.0254 71.1299 21.4488C71.0673 21.8722 70.8572 22.2589 70.5376 22.5391C70.218 22.8192 69.81 22.9743 69.3873 22.9763ZM69.3873 19.6655C69.0267 19.6627 68.6771 19.7918 68.4028 20.0292C68.1286 20.2665 67.9481 20.596 67.8944 20.9573C67.8408 21.3186 67.9176 21.6874 68.1108 21.9959C68.304 22.3044 68.6006 22.532 68.9462 22.6368C69.089 22.6813 69.2379 22.7028 69.3873 22.7006C69.7468 22.7021 70.0948 22.5723 70.3676 22.3351C70.6403 22.0978 70.8195 21.769 70.8724 21.4088C70.9253 21.0486 70.8483 20.6812 70.6555 20.3738C70.4628 20.0664 70.1671 19.8397 69.8228 19.7351C69.6823 19.6888 69.5351 19.6662 69.3873 19.6684V19.6655Z" fill="black"/>
</svg>
