<svg xmlns="http://www.w3.org/2000/svg" width="314.409" height="261" viewBox="0 0 314.409 261">
  <g id="Group_7" data-name="Group 7" transform="translate(1.409)">
    <g id="Group_8" data-name="Group 8">
      <text id="Mon" transform="translate(11.5 57)" fill="#fff" font-size="11" font-family="SegoeUI, Segoe UI"><tspan x="-11.274" y="0">Mon</tspan></text>
      <text id="Tue" transform="translate(62.5 57)" fill="#fff" font-size="11" font-family="SegoeUI, Segoe UI"><tspan x="-8.87" y="0">Tue</tspan></text>
      <text id="Wed" transform="translate(113 57)" fill="#fff" font-size="11" font-family="SegoeUI, Segoe UI"><tspan x="-11.038" y="0">Wed</tspan></text>
      <text id="Thu" transform="translate(164 57)" fill="#fff" font-size="11" font-family="SegoeUI, Segoe UI"><tspan x="-9.107" y="0">Thu</tspan></text>
      <text id="Fri" transform="translate(209 57)" fill="#fff" font-size="11" font-family="SegoeUI, Segoe UI"><tspan x="-5.93" y="0">Fri</tspan></text>
      <text id="Sat" transform="translate(252 57)" fill="#fff" font-size="11" font-family="SegoeUI, Segoe UI"><tspan x="-7.584" y="0">Sat</tspan></text>
      <text id="Sun" transform="translate(297.5 57)" fill="#fff" font-size="11" font-family="SegoeUI, Segoe UI"><tspan x="-9.147" y="0">Sun</tspan></text>
      <text id="_1" data-name="1" transform="translate(159 97)" fill="#fff" font-size="14" font-family="SegoeUI, Segoe UI"><tspan x="0" y="0">1</tspan></text>
      <text id="_2" data-name="2" transform="translate(204 97)" fill="#fff" font-size="14" font-family="SegoeUI, Segoe UI"><tspan x="0" y="0">2</tspan></text>
      <text id="_3" data-name="3" transform="translate(247 97)" fill="#fff" font-size="14" font-family="SegoeUI, Segoe UI"><tspan x="0" y="0">3</tspan></text>
      <text id="_4" data-name="4" transform="translate(292 97)" fill="#fff" font-size="14" font-family="SegoeUI, Segoe UI"><tspan x="0" y="0">4</tspan></text>
      <text id="_5" data-name="5" transform="translate(7 137)" fill="#fff" font-size="14" font-family="SegoeUI, Segoe UI"><tspan x="0" y="0">5</tspan></text>
      <text id="_6" data-name="6" transform="translate(57 137)" fill="#fff" font-size="14" font-family="SegoeUI, Segoe UI"><tspan x="0" y="0">6</tspan></text>
      <text id="_7" data-name="7" transform="translate(108 137)" fill="#fff" font-size="14" font-family="SegoeUI, Segoe UI"><tspan x="0" y="0">7</tspan></text>
      <text id="_8" data-name="8" transform="translate(159 137)" fill="#fff" font-size="14" font-family="SegoeUI, Segoe UI"><tspan x="0" y="0">8</tspan></text>
      <circle id="Oval" cx="17" cy="17" r="17" transform="translate(279 193)" fill="#d72e34"/>
      <text id="_9" data-name="9" transform="translate(204 137)" fill="#fff" font-size="14" font-family="SegoeUI, Segoe UI"><tspan x="0" y="0">9</tspan></text>
      <text id="_10" data-name="10" transform="translate(243 137)" fill="#fff" font-size="14" font-family="SegoeUI, Segoe UI"><tspan x="0" y="0">10</tspan></text>
      <text id="_11" data-name="11" transform="translate(290 137)" fill="#fff" font-size="14" font-family="SegoeUI, Segoe UI"><tspan x="0" y="0">11</tspan></text>
      <text id="_12" data-name="12" transform="translate(3 177)" fill="#fff" font-size="14" font-family="SegoeUI, Segoe UI"><tspan x="0" y="0">12</tspan></text>
      <text id="_13" data-name="13" transform="translate(53 177)" fill="#fff" font-size="14" font-family="SegoeUI, Segoe UI"><tspan x="0" y="0">13</tspan></text>
      <text id="_14" data-name="14" transform="translate(104 177)" fill="#fff" font-size="14" font-family="SegoeUI, Segoe UI"><tspan x="0" y="0">14</tspan></text>
      <text id="_15" data-name="15" transform="translate(155 177)" fill="#fff" font-size="14" font-family="SegoeUI, Segoe UI"><tspan x="0" y="0">15</tspan></text>
      <text id="_16" data-name="16" transform="translate(200 177)" fill="#fff" font-size="14" font-family="SegoeUI, Segoe UI"><tspan x="0" y="0">16</tspan></text>
      <text id="_17" data-name="17" transform="translate(243 177)" fill="#fff" font-size="14" font-family="SegoeUI, Segoe UI"><tspan x="0" y="0">17</tspan></text>
      <text id="_18" data-name="18" transform="translate(288 177)" fill="#fff" font-size="14" font-family="SegoeUI, Segoe UI"><tspan x="0" y="0">18</tspan></text>
      <text id="_19" data-name="19" transform="translate(3 217)" fill="#fff" font-size="14" font-family="SegoeUI, Segoe UI"><tspan x="0" y="0">19</tspan></text>
      <text id="_20" data-name="20" transform="translate(53 217)" fill="#fff" font-size="14" font-family="SegoeUI, Segoe UI"><tspan x="0" y="0">20</tspan></text>
      <text id="_21" data-name="21" transform="translate(104 217)" fill="#fff" font-size="14" font-family="SegoeUI, Segoe UI"><tspan x="0" y="0">21</tspan></text>
      <text id="_26" data-name="26" transform="translate(3 257)" fill="#fff" font-size="14" font-family="SegoeUI, Segoe UI"><tspan x="0" y="0">26</tspan></text>
      <text id="_27" data-name="27" transform="translate(53 257)" fill="#fff" font-size="14" font-family="SegoeUI, Segoe UI"><tspan x="0" y="0">27</tspan></text>
      <text id="_28" data-name="28" transform="translate(104 257)" fill="#fff" font-size="14" font-family="SegoeUI, Segoe UI"><tspan x="0" y="0">28</tspan></text>
      <text id="_29" data-name="29" transform="translate(155 257)" fill="#fff" font-size="14" font-family="SegoeUI, Segoe UI"><tspan x="0" y="0">29</tspan></text>
      <text id="_30" data-name="30" transform="translate(200 257)" fill="#fff" font-size="14" font-family="SegoeUI, Segoe UI"><tspan x="0" y="0">30</tspan></text>
      <text id="_22" data-name="22" transform="translate(155 217)" fill="#fff" font-size="14" font-family="SegoeUI, Segoe UI"><tspan x="0" y="0">22</tspan></text>
      <text id="_23" data-name="23" transform="translate(200 217)" fill="#fff" font-size="14" font-family="SegoeUI, Segoe UI"><tspan x="0" y="0">23</tspan></text>
      <text id="_24" data-name="24" transform="translate(243 217)" fill="#fff" font-size="14" font-family="SegoeUI, Segoe UI"><tspan x="0" y="0">24</tspan></text>
      <text id="_25" data-name="25" transform="translate(288 217)" fill="#fff" font-size="14" font-family="SegoeUI, Segoe UI"><tspan x="0" y="0">25</tspan></text>
      <text id="May" transform="translate(137 19)" fill="#fff" font-size="18" font-family="SegoeUI, Segoe UI"><tspan x="0" y="0">May</tspan></text>
    </g>
    <path id="Line_6" data-name="Line 6" d="M0,0,7.009,7.057,0,14.114" transform="translate(300 6)" fill="none" stroke="#fff" stroke-linecap="square" stroke-miterlimit="10" stroke-width="2"/>
    <path id="Line_6-2" data-name="Line 6" d="M0,0-7.009,7.057,0,14.114" transform="translate(7.009 6)" fill="none" stroke="#fff" stroke-linecap="square" stroke-miterlimit="10" stroke-width="2"/>
  </g>
</svg>
