<svg id="Group_14" data-name="Group 14" xmlns="http://www.w3.org/2000/svg" width="100" height="100" viewBox="0 0 100 100">
  <g id="Unknown">
    <g id="Unknown-2" data-name="Unknown" transform="translate(0)">
      <circle id="Mask" cx="50" cy="50" r="50" transform="translate(0 0)" opacity="0.2"/>
      <path id="Shape" d="M1.1,47.4A1.11,1.11,0,0,1,0,46.3a.945.945,0,0,1,1-1H3.1V1a.945.945,0,0,1,1-1H20.3a.945.945,0,0,1,1,1V13.2H22a4.31,4.31,0,0,1,2-3C24.2,8.5,25.3,7,26.6,7h.6V2.8a1,1,0,1,1,2,0V7h.6c1.3,0,2.4,1.5,2.6,3.2a5.036,5.036,0,0,1,2,3h1.7a.944.944,0,0,1,1,1V45.4h5.2V42a5.38,5.38,0,0,1-3.9-5.4c0-3,2.2-5.5,4.9-5.5s4.9,2.5,4.9,5.5A5.38,5.38,0,0,1,44.3,42v3.4h7.1V41.9A3.887,3.887,0,0,1,49,38.2a4.075,4.075,0,0,1,1.4-3,3.6,3.6,0,0,1-.9-2.2,3.077,3.077,0,0,1,3-3,3.009,3.009,0,0,1,3,3,2.793,2.793,0,0,1-.9,2.2,3.749,3.749,0,0,1,1.4,3,3.791,3.791,0,0,1-2.4,3.7v3.5h3.1V4.6a.944.944,0,0,1,1-1H74a.944.944,0,0,1,1,1V45.4h1.2a1,1,0,0,1,0,2Z" transform="translate(11 32.7)" fill="#fff" opacity="0.3"/>
      <path id="Path" d="M1,0A.945.945,0,0,0,0,1V3.5a.945.945,0,0,0,1,1,.945.945,0,0,0,1-1V1A1.075,1.075,0,0,0,1,0Z" transform="translate(18.4 37.4)" fill="#fff" opacity="0.3"/>
      <path id="Path-2" data-name="Path" d="M1,0A.945.945,0,0,0,0,1V3.5a.945.945,0,0,0,1,1,.945.945,0,0,0,1-1V1A1,1,0,0,0,1,0Z" transform="translate(22.4 37.4)" fill="#fff" opacity="0.3"/>
      <path id="Path-3" data-name="Path" d="M1,0A.945.945,0,0,0,0,1V3.5a.945.945,0,0,0,1,1,.945.945,0,0,0,1-1V1A1.075,1.075,0,0,0,1,0Z" transform="translate(26.5 37.4)" fill="#fff" opacity="0.3"/>
      <path id="Path-4" data-name="Path" d="M1,0A.945.945,0,0,0,0,1V3.5a.945.945,0,0,0,1,1,.945.945,0,0,0,1-1V1A1.075,1.075,0,0,0,1,0Z" transform="translate(18.4 43.8)" fill="#fff" opacity="0.3"/>
      <path id="Path-5" data-name="Path" d="M1,0A.945.945,0,0,0,0,1V3.5a.945.945,0,0,0,1,1,.945.945,0,0,0,1-1V1A1,1,0,0,0,1,0Z" transform="translate(22.4 43.8)" fill="#fff" opacity="0.3"/>
      <path id="Path-6" data-name="Path" d="M1,0A.945.945,0,0,0,0,1V3.5a.945.945,0,0,0,1,1,.945.945,0,0,0,1-1V1A1.075,1.075,0,0,0,1,0Z" transform="translate(26.5 43.8)" fill="#fff" opacity="0.3"/>
      <path id="Path-7" data-name="Path" d="M1,0A.945.945,0,0,0,0,1V3.5a.945.945,0,0,0,1,1,.945.945,0,0,0,1-1V1A1,1,0,0,0,1,0Z" transform="translate(18.4 50.3)" fill="#fff" opacity="0.3"/>
      <path id="Path-8" data-name="Path" d="M1,0A.945.945,0,0,0,0,1V3.5a.945.945,0,0,0,1,1,.945.945,0,0,0,1-1V1A.945.945,0,0,0,1,0Z" transform="translate(22.4 50.3)" fill="#fff" opacity="0.3"/>
      <path id="Path-9" data-name="Path" d="M1,0A.945.945,0,0,0,0,1V3.5a.945.945,0,0,0,1,1,.945.945,0,0,0,1-1V1A1,1,0,0,0,1,0Z" transform="translate(26.5 50.3)" fill="#fff" opacity="0.3"/>
      <path id="Path-10" data-name="Path" d="M1,0A.945.945,0,0,0,0,1V3.5a.945.945,0,0,0,1,1,.945.945,0,0,0,1-1V1A1.075,1.075,0,0,0,1,0Z" transform="translate(18.4 56.7)" fill="#fff" opacity="0.3"/>
      <path id="Path-11" data-name="Path" d="M1,0A.945.945,0,0,0,0,1V3.5a.945.945,0,0,0,1,1,.945.945,0,0,0,1-1V1A1,1,0,0,0,1,0Z" transform="translate(22.4 56.7)" fill="#fff" opacity="0.3"/>
      <path id="Path-12" data-name="Path" d="M1,0A.945.945,0,0,0,0,1V3.5a.945.945,0,0,0,1,1,.945.945,0,0,0,1-1V1A1.075,1.075,0,0,0,1,0Z" transform="translate(26.5 56.7)" fill="#fff" opacity="0.3"/>
      <path id="Path-13" data-name="Path" d="M1,0A.945.945,0,0,0,0,1V3.5a.945.945,0,0,0,1,1,.945.945,0,0,0,1-1V1A1.075,1.075,0,0,0,1,0Z" transform="translate(18.4 63.1)" fill="#fff" opacity="0.3"/>
      <path id="Path-14" data-name="Path" d="M1,0A.945.945,0,0,0,0,1V3.5a.945.945,0,0,0,1,1,.945.945,0,0,0,1-1V1A1,1,0,0,0,1,0Z" transform="translate(22.4 63.1)" fill="#fff" opacity="0.3"/>
      <path id="Path-15" data-name="Path" d="M1,0A.945.945,0,0,0,0,1V3.5a.945.945,0,0,0,1,1,.945.945,0,0,0,1-1V1A1.075,1.075,0,0,0,1,0Z" transform="translate(26.5 63.1)" fill="#fff" opacity="0.3"/>
      <path id="Path-16" data-name="Path" d="M1,0A.945.945,0,0,0,0,1V3.4a.945.945,0,0,0,1,1,.945.945,0,0,0,1-1V.9A.987.987,0,0,0,1,0Z" transform="translate(18.4 69.6)" fill="#fff" opacity="0.3"/>
      <path id="Path-17" data-name="Path" d="M1,0A.945.945,0,0,0,0,1V3.4a.945.945,0,0,0,1,1,.945.945,0,0,0,1-1V.9A.923.923,0,0,0,1,0Z" transform="translate(22.4 69.6)" fill="#fff" opacity="0.3"/>
      <path id="Path-18" data-name="Path" d="M1,0A.945.945,0,0,0,0,1V3.4a.945.945,0,0,0,1,1,.945.945,0,0,0,1-1V.9A.987.987,0,0,0,1,0Z" transform="translate(26.5 69.6)" fill="#fff" opacity="0.3"/>
      <path id="Path-19" data-name="Path" d="M1,4.5a.945.945,0,0,0,1-1V1A.945.945,0,0,0,1,0,.945.945,0,0,0,0,1V3.5A1,1,0,0,0,1,4.5Z" transform="translate(34.3 50.3)" fill="#fff" opacity="0.3"/>
      <path id="Path-20" data-name="Path" d="M1,4.5a.945.945,0,0,0,1-1V1A.945.945,0,0,0,1,0,.945.945,0,0,0,0,1V3.5A1.075,1.075,0,0,0,1,4.5Z" transform="translate(38.3 50.3)" fill="#fff" opacity="0.3"/>
      <path id="Path-21" data-name="Path" d="M1,4.5a.945.945,0,0,0,1-1V1A.945.945,0,0,0,1,0,.945.945,0,0,0,0,1V3.5A1,1,0,0,0,1,4.5Z" transform="translate(42.4 50.3)" fill="#fff" opacity="0.3"/>
      <path id="Path-22" data-name="Path" d="M1,4.5a.945.945,0,0,0,1-1V1A.945.945,0,0,0,1,0,.945.945,0,0,0,0,1V3.5A1,1,0,0,0,1,4.5Z" transform="translate(34.3 56.7)" fill="#fff" opacity="0.3"/>
      <path id="Path-23" data-name="Path" d="M1,4.5a.945.945,0,0,0,1-1V1A.945.945,0,0,0,1,0,.945.945,0,0,0,0,1V3.5A1.075,1.075,0,0,0,1,4.5Z" transform="translate(38.3 56.7)" fill="#fff" opacity="0.3"/>
      <path id="Path-24" data-name="Path" d="M1,4.5a.945.945,0,0,0,1-1V1A.945.945,0,0,0,1,0,.945.945,0,0,0,0,1V3.5A1,1,0,0,0,1,4.5Z" transform="translate(42.4 56.7)" fill="#fff" opacity="0.3"/>
      <path id="Path-25" data-name="Path" d="M1,4.5a.945.945,0,0,0,1-1V1A.945.945,0,0,0,1,0,.945.945,0,0,0,0,1V3.5A.945.945,0,0,0,1,4.5Z" transform="translate(34.3 63.1)" fill="#fff" opacity="0.3"/>
      <path id="Path-26" data-name="Path" d="M1,4.5a.945.945,0,0,0,1-1V1A.945.945,0,0,0,1,0,.945.945,0,0,0,0,1V3.5A1,1,0,0,0,1,4.5Z" transform="translate(38.3 63.1)" fill="#fff" opacity="0.3"/>
      <path id="Path-27" data-name="Path" d="M1,4.5a.945.945,0,0,0,1-1V1A.945.945,0,0,0,1,0,.945.945,0,0,0,0,1V3.5A.945.945,0,0,0,1,4.5Z" transform="translate(42.4 63.1)" fill="#fff" opacity="0.3"/>
      <path id="Path-28" data-name="Path" d="M1,4.5a.945.945,0,0,0,1-1V1A.945.945,0,0,0,1,0,.945.945,0,0,0,0,1V3.5A.945.945,0,0,0,1,4.5Z" transform="translate(34.3 69.5)" fill="#fff" opacity="0.3"/>
      <path id="Path-29" data-name="Path" d="M1,4.5a.945.945,0,0,0,1-1V1A.945.945,0,0,0,1,0,.945.945,0,0,0,0,1V3.5A1,1,0,0,0,1,4.5Z" transform="translate(38.3 69.5)" fill="#fff" opacity="0.3"/>
      <path id="Path-30" data-name="Path" d="M1,4.5a.945.945,0,0,0,1-1V1A.945.945,0,0,0,1,0,.945.945,0,0,0,0,1V3.5A.945.945,0,0,0,1,4.5Z" transform="translate(42.4 69.5)" fill="#fff" opacity="0.3"/>
      <path id="Path-31" data-name="Path" d="M1,0A.945.945,0,0,0,0,1V8.3a.945.945,0,0,0,1,1,.945.945,0,0,0,1-1V1A1.075,1.075,0,0,0,1,0Z" transform="translate(72 52.9)" fill="#fff" opacity="0.3"/>
      <path id="Path-32" data-name="Path" d="M1,0A.945.945,0,0,0,0,1V8.3a.945.945,0,0,0,1,1,.945.945,0,0,0,1-1V1A1.075,1.075,0,0,0,1,0Z" transform="translate(75.9 52.9)" fill="#fff" opacity="0.3"/>
      <path id="Path-33" data-name="Path" d="M1,0A.945.945,0,0,0,0,1V8.3a.945.945,0,0,0,1,1,.945.945,0,0,0,1-1V1A1,1,0,0,0,1,0Z" transform="translate(79.7 52.9)" fill="#fff" opacity="0.3"/>
      <path id="Path-34" data-name="Path" d="M1,0A.945.945,0,0,0,0,1V8.3a.945.945,0,0,0,1,1,.945.945,0,0,0,1-1V1A1.075,1.075,0,0,0,1,0Z" transform="translate(72 41.2)" fill="#fff" opacity="0.3"/>
      <path id="Path-35" data-name="Path" d="M1,0A.945.945,0,0,0,0,1V8.3a.945.945,0,0,0,1,1,.945.945,0,0,0,1-1V1A1.075,1.075,0,0,0,1,0Z" transform="translate(75.9 41.2)" fill="#fff" opacity="0.3"/>
      <path id="Path-36" data-name="Path" d="M1,0A.945.945,0,0,0,0,1V8.3a.945.945,0,0,0,1,1,.945.945,0,0,0,1-1V1A1,1,0,0,0,1,0Z" transform="translate(79.7 41.2)" fill="#fff" opacity="0.3"/>
      <path id="Path-37" data-name="Path" d="M1,0A.945.945,0,0,0,0,1V8.3a.945.945,0,0,0,1,1,.945.945,0,0,0,1-1V1A1.075,1.075,0,0,0,1,0Z" transform="translate(72 64.4)" fill="#fff" opacity="0.3"/>
      <path id="Path-38" data-name="Path" d="M1,0A.945.945,0,0,0,0,1V8.3a.945.945,0,0,0,1,1,.945.945,0,0,0,1-1V1A1.075,1.075,0,0,0,1,0Z" transform="translate(75.9 64.4)" fill="#fff" opacity="0.3"/>
      <path id="Path-39" data-name="Path" d="M1,0A.945.945,0,0,0,0,1V8.3a.945.945,0,0,0,1,1,.945.945,0,0,0,1-1V1A1,1,0,0,0,1,0Z" transform="translate(79.7 64.4)" fill="#fff" opacity="0.3"/>
      <path id="Shape-2" data-name="Shape" d="M0,4.7A4.7,4.7,0,1,1,4.7,9.4,4.694,4.694,0,0,1,0,4.7Z" transform="translate(50.6 14.9)" fill="#f7b500"/>
      <path id="Path-40" data-name="Path" d="M2,3.8V1A.945.945,0,0,0,1,0,.945.945,0,0,0,0,1V3.8a.945.945,0,0,0,1,1A.945.945,0,0,0,2,3.8Z" transform="translate(54.4 7.8)" fill="#f7b500"/>
      <path id="Path-41" data-name="Path" d="M2.941.141a1.012,1.012,0,0,0-1.4.4l-1.4,2.5a1.012,1.012,0,0,0,.4,1.4.9.9,0,0,0,.5.1,1.193,1.193,0,0,0,.9-.5l1.4-2.5A1.012,1.012,0,0,0,2.941.141Z" transform="translate(58.359 9.159)" fill="#f7b500"/>
      <path id="Path-42" data-name="Path" d="M.1,2.9a1.05,1.05,0,0,0,.9.5.9.9,0,0,0,.5-.1L3.9,1.9A1.107,1.107,0,0,0,4.3.5,1.107,1.107,0,0,0,2.9.1L.5,1.5A1.107,1.107,0,0,0,.1,2.9Z" transform="translate(61.403 13.203)" fill="#f7b500"/>
      <path id="Path-43" data-name="Path" d="M4.8,1a1.075,1.075,0,0,0-1-1H1A1,1,0,0,0,0,1,1.075,1.075,0,0,0,1,2H3.8A1,1,0,0,0,4.8,1Z" transform="translate(62.6 18.6)" fill="#f7b500"/>
      <path id="Path-44" data-name="Path" d="M3.541,3.441a1.05,1.05,0,0,0,.9-.5,1.012,1.012,0,0,0-.4-1.4l-2.5-1.4a1.012,1.012,0,0,0-1.4.4,1.012,1.012,0,0,0,.4,1.4l2.5,1.4A4.331,4.331,0,0,1,3.541,3.441Z" transform="translate(61.459 22.659)" fill="#f7b500"/>
      <path id="Path-45" data-name="Path" d="M1.669,3.869a1.05,1.05,0,0,0,.9.5.749.749,0,0,0,.5-.1.984.984,0,0,0,.3-1.4l-1.5-2.4a.984.984,0,0,0-1.4-.3.984.984,0,0,0-.3,1.4Z" transform="translate(58.631 25.831)" fill="#f7b500"/>
      <path id="Path-46" data-name="Path" d="M1,.013a1,1,0,0,0-1,1l.1,2.8a1.075,1.075,0,0,0,1,1h0a1,1,0,0,0,1-1L2,1.013A.942.942,0,0,0,1,.013Z" transform="translate(54.6 26.987)" fill="#f7b500"/>
      <path id="Path-47" data-name="Path" d="M.541,4.441a.749.749,0,0,0,.5.1,1.05,1.05,0,0,0,.9-.5l1.3-2.5a1.012,1.012,0,0,0-.4-1.4,1.012,1.012,0,0,0-1.4.4l-1.3,2.5A.965.965,0,0,0,.541,4.441Z" transform="translate(49.259 25.959)" fill="#f7b500"/>
      <path id="Path-48" data-name="Path" d="M1.069,3.569a.764.764,0,0,0,.5-.2l2.4-1.5a.984.984,0,0,0,.3-1.4.984.984,0,0,0-1.4-.3l-2.4,1.5a.984.984,0,0,0-.3,1.4A.874.874,0,0,0,1.069,3.569Z" transform="translate(45.031 23.131)" fill="#f7b500"/>
      <path id="Path-49" data-name="Path" d="M0,1.015a1.075,1.075,0,0,0,1,1h.1l2.8-.1a.865.865,0,0,0,.9-1,.865.865,0,0,0-1-.9L1,.115A.827.827,0,0,0,0,1.015Z" transform="translate(43.3 19.385)" fill="#f7b500"/>
      <path id="Path-50" data-name="Path" d="M.1.577a.955.955,0,0,0,.4,1.3L3,3.177a.749.749,0,0,0,.5.1,1.05,1.05,0,0,0,.9-.5.955.955,0,0,0-.4-1.3L1.5.077A1.15,1.15,0,0,0,.1.577Z" transform="translate(44.503 13.823)" fill="#f7b500"/>
      <path id="Path-51" data-name="Path" d="M2.569,4.469a1.421,1.421,0,0,0,.6-.2.984.984,0,0,0,.3-1.4l-1.6-2.4a.984.984,0,0,0-1.4-.3.984.984,0,0,0-.3,1.4l1.6,2.4A1.02,1.02,0,0,0,2.569,4.469Z" transform="translate(48.231 9.531)" fill="#f7b500"/>
    </g>
  </g>
</svg>
