<svg id="Group_14_Copy_2" data-name="Group 14 Copy 2" xmlns="http://www.w3.org/2000/svg" width="30" height="30" viewBox="0 0 30 30">
  <rect id="Rectangle_21" data-name="Rectangle 21" width="30" height="30" rx="15" fill="#eee"/>
  <g id="noun_Delete_2206208" transform="translate(9.286 8.571)">
    <path id="Shape" d="M1.883,9.89A1.233,1.233,0,0,1,.66,8.75L0,0H9.178L8.647,8.73A1.236,1.236,0,0,1,7.414,9.89Z" transform="translate(1.015 2.967)" fill="#979797"/>
    <path id="Shape-2" data-name="Shape" d="M7.582.495h0A.5.5,0,0,0,7.088,0H4.121a.5.5,0,0,0-.495.495h0a.5.5,0,0,1-.495.495H.495A.5.5,0,0,0,0,1.484v.33a.5.5,0,0,0,.495.495h10.22a.5.5,0,0,0,.495-.495v-.33a.5.5,0,0,0-.495-.495H8.077A.5.5,0,0,1,7.582.495Z" fill="#979797"/>
  </g>
</svg>
