<svg xmlns="http://www.w3.org/2000/svg" width="14.741" height="27.493" viewBox="0 0 14.741 27.493">
  <g id="noun_hourly_2496390" transform="translate(-0.623 -0.564)">
    <g id="Group" transform="translate(0.1)">
      <g id="Group-2" data-name="Group">
        <path id="Path" d="M8.664,0H6.135A.846.846,0,0,0,5.31.825V3.134A6.408,6.408,0,0,0,.031,10.063a6.625,6.625,0,0,0,6.653,5.774h1.65a2.384,2.384,0,0,1,1.65.715,2.27,2.27,0,0,1,.55,1.76,2.335,2.335,0,0,1-2.364,1.98H5.915a1.52,1.52,0,0,1-1.43-1.155.776.776,0,0,0-.77-.6H1.131a.883.883,0,0,0-.6.275.827.827,0,0,0-.22.6,5.564,5.564,0,0,0,4.949,5v2.254a.846.846,0,0,0,.825.825H8.609a.846.846,0,0,0,.825-.825V24.3A6.526,6.526,0,0,0,14.713,18.7a6.346,6.346,0,0,0-1.65-4.949,6.41,6.41,0,0,0-4.729-2.089H6.41a2.384,2.384,0,0,1-1.65-.715,2.27,2.27,0,0,1-.55-1.76A2.335,2.335,0,0,1,6.575,7.2H8.829a1.52,1.52,0,0,1,1.43,1.155.776.776,0,0,0,.77.6h2.584a.883.883,0,0,0,.6-.275.827.827,0,0,0,.22-.6,5.564,5.564,0,0,0-4.949-5V.825A.844.844,0,0,0,8.664,0Z" transform="translate(0.523 0.564)" fill="#b2b2b2"/>
      </g>
    </g>
  </g>
</svg>
