<svg xmlns="http://www.w3.org/2000/svg" width="31.363" height="28.373" viewBox="0 0 31.363 28.373">
  <g id="noun_hourly_2496390" transform="translate(-0.837)">
    <g id="Group" transform="translate(0.66)">
      <g id="Group-2" data-name="Group">
        <path id="Path" d="M5.2,0H3.681a.507.507,0,0,0-.495.495V1.881A3.845,3.845,0,0,0,.019,6.038,3.975,3.975,0,0,0,4.011,9.5H5a1.43,1.43,0,0,1,.99.429,1.362,1.362,0,0,1,.33,1.056A1.4,1.4,0,0,1,4.9,12.174H3.549a.912.912,0,0,1-.858-.693.465.465,0,0,0-.462-.363H.679a.53.53,0,0,0-.363.165.5.5,0,0,0-.132.363,3.339,3.339,0,0,0,2.969,3V16a.507.507,0,0,0,.495.495H5.166A.507.507,0,0,0,5.66,16V14.582a3.916,3.916,0,0,0,3.167-3.365,3.808,3.808,0,0,0-.99-2.969A3.846,3.846,0,0,0,5,6.994H3.846a1.43,1.43,0,0,1-.99-.429,1.362,1.362,0,0,1-.33-1.056A1.4,1.4,0,0,1,3.945,4.322H5.3a.912.912,0,0,1,.858.693.465.465,0,0,0,.462.363H8.168a.53.53,0,0,0,.363-.165.5.5,0,0,0,.132-.363,3.339,3.339,0,0,0-2.969-3V.495A.507.507,0,0,0,5.2,0Z" transform="translate(12.914 5.939)" fill="#b2b2b2"/>
        <path id="Path-2" data-name="Path" d="M17.144,0A13.953,13.953,0,0,0,8.665,2.837a1.485,1.485,0,1,0,1.782,2.375,11.2,11.2,0,1,1-4.487,8.974H7.873a1.074,1.074,0,0,0,.924-1.65L5.4,6.829a1.084,1.084,0,0,0-1.881,0L.153,12.537a1.094,1.094,0,0,0,.924,1.65H2.99A14.187,14.187,0,1,0,17.144,0Z" transform="translate(0.177)" fill="#b2b2b2"/>
      </g>
    </g>
  </g>
</svg>
