<svg id="Group_7_Copy" data-name="Group 7 Copy" xmlns="http://www.w3.org/2000/svg" width="30" height="30" viewBox="0 0 30 30">
  <g id="Group_14_Copy_3" data-name="Group 14 Copy 3">
    <rect id="Rectangle_21" data-name="Rectangle 21" width="30" height="30" rx="15" fill="#eee"/>
  </g>
  <path id="Shape" d="M.088,12.771a.3.3,0,0,1-.081-.278L.668,9.51l2.614,2.628-2.915.71a.294.294,0,0,1-.07.008A.3.3,0,0,1,.088,12.771ZM1.376,8.8,7.995,2.146,10.61,4.774,3.99,11.425Zm7.3-7.336L9.794.34a1.152,1.152,0,0,1,1.634,0l1.166,1.172a.9.9,0,0,1,0,1.269l-1.3,1.309Z" transform="translate(8.571 8.571)" fill="#979797"/>
</svg>
