<svg xmlns="http://www.w3.org/2000/svg" width="18" height="20.001" viewBox="0 0 18 20.001">
  <g id="noun_expert_1190749" transform="translate(0)">
    <g id="Group">
      <path id="Path" d="M4.2,1.163h-.5L3.552.691a1,1,0,0,0-1.9,0L1.5,1.163H1A1,1,0,0,0,.412,2.971l.4.292L.66,3.736A1,1,0,0,0,2.2,4.855l.4-.292.4.292A1,1,0,0,0,4.541,3.737l-.153-.473.4-.292A1,1,0,0,0,4.2,1.163Z" transform="translate(0 14.955)" fill="#25a464"/>
      <path id="Path-2" data-name="Path" d="M1,14H11a1,1,0,0,0,1-1c0-2.918-1.174-5.166-3.1-6.262a4,4,0,1,0-5.8,0C1.174,7.834,0,10.082,0,13A1,1,0,0,0,1,14Z" transform="translate(3)" fill="#25a464"/>
      <path id="Path-3" data-name="Path" d="M4.2,1.163h-.5L3.552.691a1,1,0,0,0-1.9,0L1.5,1.163H1A1,1,0,0,0,.412,2.971l.4.292L.66,3.736A1,1,0,0,0,2.2,4.854l.4-.291.4.292A1,1,0,0,0,4.54,3.737l-.153-.473.4-.292A1,1,0,0,0,4.2,1.163Z" transform="translate(6.4 14.91)" fill="#25a464"/>
      <path id="Path-4" data-name="Path" d="M5.152,1.854A1,1,0,0,0,4.2,1.163H3.7L3.551.691a1,1,0,0,0-1.9,0L1.5,1.163H1A1,1,0,0,0,.412,2.971l.4.292L.66,3.736A1,1,0,0,0,2.2,4.854l.4-.292.4.292A1,1,0,0,0,4.541,3.736l-.153-.473.4-.292A1,1,0,0,0,5.152,1.854Z" transform="translate(12.799 14.911)" fill="#25a464"/>
    </g>
  </g>
</svg>
