<svg width="25" height="24" viewBox="0 0 25 24" fill="none" xmlns="http://www.w3.org/2000/svg">
<g clip-path="url(#clip0)">
<path d="M6.20361 6.28036C6.40361 7.44036 6.93361 7.92036 8.03361 7.91036H9.32361C9.582 7.91181 9.83588 7.84274 10.0579 7.71058C10.2799 7.57841 10.4617 7.38818 10.5836 7.16036C10.7208 6.87448 10.8312 6.57655 10.9136 6.27036H21.5736C21.7293 6.27891 21.8837 6.23807 22.0148 6.15367C22.1459 6.06926 22.247 5.94561 22.3036 5.80036C22.3691 5.66375 22.3945 5.51134 22.3768 5.36086C22.3591 5.21038 22.2991 5.06803 22.2036 4.95036C22.1181 4.84116 22.0063 4.75545 21.8786 4.70123C21.7509 4.64702 21.6116 4.62607 21.4736 4.64036H10.8636C10.8671 4.41455 10.8234 4.19049 10.7352 3.98258C10.647 3.77467 10.5164 3.58749 10.3516 3.43306C10.1868 3.27863 9.99152 3.16036 9.77833 3.08584C9.56514 3.01132 9.33872 2.98221 9.11361 3.00036H7.76361C7.52569 2.99626 7.29064 3.05287 7.08068 3.16486C6.87071 3.27684 6.69276 3.44049 6.56361 3.64036C6.39434 3.96063 6.25379 4.29527 6.14361 4.64036H3.20361C3.09431 4.63755 2.98559 4.65717 2.88417 4.69802C2.78275 4.73886 2.69078 4.80007 2.61394 4.87785C2.53709 4.95563 2.47701 5.04833 2.43739 5.15024C2.39778 5.25215 2.37948 5.3611 2.38361 5.47036C2.38223 5.57665 2.40232 5.68212 2.44266 5.78046C2.48301 5.8788 2.54278 5.96799 2.61841 6.04269C2.69404 6.11738 2.78396 6.17604 2.8828 6.21516C2.98164 6.25429 3.08735 6.27306 3.19361 6.27036H6.19361L6.20361 6.28036ZM17.0236 11.1704C16.8236 10.0004 16.3136 9.55036 15.1936 9.54036H13.9036C13.5955 9.54683 13.2964 9.64559 13.0451 9.82387C12.7937 10.0021 12.6016 10.2517 12.4936 10.5404C12.4336 10.7304 12.4036 10.9304 12.3436 11.1504H3.18361C3.0386 11.144 2.89492 11.1804 2.77046 11.2551C2.64599 11.3298 2.54624 11.4394 2.48361 11.5704C2.40325 11.6976 2.3599 11.8446 2.35844 11.9951C2.35697 12.1456 2.39744 12.2934 2.47531 12.4222C2.55318 12.5509 2.66538 12.6555 2.79931 12.724C2.93325 12.7926 3.08364 12.8225 3.23361 12.8104H12.3836C12.3803 13.0344 12.4235 13.2566 12.5105 13.4631C12.5975 13.6695 12.7263 13.8557 12.8889 14.0098C13.0515 14.1639 13.2443 14.2826 13.4551 14.3585C13.6659 14.4343 13.8901 14.4656 14.1136 14.4504H15.4836C15.722 14.4574 15.9582 14.402 16.1686 14.2898C16.3791 14.1775 16.5566 14.0123 16.6836 13.8104C16.8552 13.4912 16.9959 13.1563 17.1036 12.8104H21.5036C21.6182 12.8231 21.7342 12.8115 21.844 12.7763C21.9539 12.7412 22.055 12.6832 22.141 12.6063C22.2269 12.5294 22.2956 12.4352 22.3427 12.33C22.3897 12.2247 22.414 12.1107 22.414 11.9954C22.414 11.88 22.3897 11.766 22.3427 11.6608C22.2956 11.5555 22.2269 11.4613 22.141 11.3844C22.055 11.3075 21.9539 11.2496 21.844 11.2144C21.7342 11.1792 21.6182 11.1676 21.5036 11.1804H17.0236V11.1704ZM6.21361 19.3504C6.33361 20.2704 6.74361 20.8404 7.48361 20.9304C8.18039 21.0254 8.88684 21.0254 9.58361 20.9304C10.3936 20.8304 10.7636 20.2004 10.8636 19.3504H21.5736C21.729 19.3574 21.8827 19.3159 22.0135 19.2317C22.1443 19.1475 22.2457 19.0247 22.3036 18.8804C22.3631 18.749 22.3874 18.6044 22.374 18.4608C22.3606 18.3172 22.31 18.1796 22.2272 18.0615C22.1445 17.9434 22.0324 17.8489 21.902 17.7874C21.7716 17.7258 21.6274 17.6992 21.4836 17.7104H10.8636C10.6936 16.5704 10.1536 16.0904 9.09361 16.0804H7.74361C7.39262 16.0909 7.05594 16.2219 6.7901 16.4514C6.52426 16.6808 6.34542 16.9947 6.28361 17.3404C6.28361 17.4604 6.28361 17.5804 6.20361 17.7204H3.18361C2.98237 17.7172 2.78751 17.791 2.63884 17.9267C2.49016 18.0624 2.39887 18.2497 2.38361 18.4504C2.36504 18.6454 2.41609 18.8408 2.52774 19.0019C2.63938 19.1629 2.80441 19.2793 2.99361 19.3304C3.10339 19.3403 3.21384 19.3403 3.32361 19.3304L6.21361 19.3504Z" fill="black"/>
</g>
<defs>
<clipPath id="clip0">
<rect width="20" height="18" fill="white" transform="translate(2.38379 3)"/>
</clipPath>
</defs>
</svg>
