<svg xmlns="http://www.w3.org/2000/svg" width="40" height="40" viewBox="0 0 40 40">
  <g id="noun_note_2353139" transform="translate(0)">
    <rect id="Rectangle" width="14.923" height="1.778" transform="translate(10.992 7.708)"/>
    <path id="Path" d="M1.333,0A1.333,1.333,0,1,0,2.667,1.333,1.333,1.333,0,0,0,1.333,0Z" transform="translate(6.53 7.264)"/>
    <path id="Path-2" data-name="Path" d="M1.333,0A1.333,1.333,0,1,0,2.667,1.333,1.333,1.333,0,0,0,1.333,0Z" transform="translate(6.53 14.866)"/>
    <rect id="Rectangle-2" data-name="Rectangle" width="14.923" height="1.778" transform="translate(10.992 15.31)"/>
    <path id="Path-3" data-name="Path" d="M1.333,0A1.333,1.333,0,1,0,2.667,1.333,1.333,1.333,0,0,0,1.333,0Z" transform="translate(6.53 22.468)"/>
    <path id="Path-4" data-name="Path" d="M1.333,0A1.333,1.333,0,1,0,2.667,1.333,1.333,1.333,0,0,0,1.333,0Z" transform="translate(6.53 30.07)"/>
    <path id="Path-5" data-name="Path" d="M7.614,6.461l-.161-.055L6.41,6.046,6.5,5.772a2.631,2.631,0,0,0-.594-2.684l.577-1.671A.945.945,0,0,0,5.9.216L5.429.052a.945.945,0,0,0-1.2.585L3.651,2.307A2.631,2.631,0,0,0,1.527,4.054L0,8.478,4.977,10.2l.954-2.762.8.276a.257.257,0,0,1,.159.327l-2.8,8.12a.732.732,0,0,0,1.384.478L8.358,8.271l.057-.164a1.3,1.3,0,0,0-.8-1.646Z" transform="translate(31.514 2.685)"/>
    <path id="Path-6" data-name="Path" d="M.066,22.566a.393.393,0,0,0,.243.5l.566.2a.393.393,0,0,0,.5-.243l.451-1.307a.393.393,0,0,1,.1-.154l2.738-2.649a1.655,1.655,0,0,0,.408-.648L10.78,1.718,5.8,0,.093,16.541a1.656,1.656,0,0,0-.079.762l.521,3.774a.393.393,0,0,1-.018.182Z" transform="translate(25.334 12.255)"/>
    <path id="Path-7" data-name="Path" d="M0,1.778H12.939L12.694,0H0V1.778Z" transform="translate(10.992 30.514)"/>
    <path id="Path-8" data-name="Path" d="M14.585,0H0V1.778H13.972L14.585,0Z" transform="translate(10.992 22.912)"/>
    <path id="Path-9" data-name="Path" d="M1.111,40H31.333a1.111,1.111,0,0,0,1.111-1.111V30.051l-.36,1.042a3.437,3.437,0,0,1-.852,1.346l-1.01.977v4.361h-28V2.222h28V9.455l1.138-3.3a4.4,4.4,0,0,1,1.084-1.712V1.111A1.111,1.111,0,0,0,31.333,0H1.111A1.111,1.111,0,0,0,0,1.111V38.889A1.111,1.111,0,0,0,1.111,40Z" transform="translate(0)"/>
  </g>
</svg>
