<svg xmlns="http://www.w3.org/2000/svg" width="20.129" height="18.784" viewBox="0 0 20.129 18.784">
  <g id="noun_notification_677016" transform="translate(20.065 -0.608)">
    <path id="Shape" d="M-6.672,15.591H-.53a.53.53,0,0,0,.53-.53.53.53,0,0,0-.53-.53H-2.648V7.062c0-.014,0-.029,0-.043A7.136,7.136,0,0,0-9.764,0,7.137,7.137,0,0,0-16.88,7.02c0,.014,0,.028,0,.042V14.53H-19a.531.531,0,0,0-.53.53.53.53,0,0,0,.53.53h6.142a3.146,3.146,0,0,0,3.093,2.594A3.146,3.146,0,0,0-6.672,15.591Z" transform="translate(-0.235 0.908)" fill="#fff" stroke="#fff" stroke-miterlimit="10" stroke-width="0.6"/>
  </g>
</svg>
