<svg id="Group_10" data-name="Group 10" xmlns="http://www.w3.org/2000/svg" width="70" height="70" viewBox="0 0 70 70">
  <circle id="Oval_Copy" data-name="Oval Copy" cx="35" cy="35" r="35" transform="translate(0 0)" fill="#f5f7f8"/>
  <g id="noun_Injection_Molding_301296" data-name="noun_Injection Molding_301296" transform="translate(13.3 24.5)">
    <path id="Shape" d="M18.2,2.835,3.346,2.447a1.069,1.069,0,0,1-1.03-1.091V0H0V9.332H20.153V3.687l-.872-.029A1.181,1.181,0,0,1,18.2,2.835Z" transform="translate(23.235 11.505)"/>
    <path id="Shape-2" data-name="Shape" d="M15.779.04l0,.014h0a1.16,1.16,0,0,1-.258.431A1.171,1.171,0,0,1,14.7.842L0,1.216v3.44l14.7.384a1.171,1.171,0,0,1,.924.493l.091.155a.575.575,0,0,1,.038.082l.034.1.532.018V0l-.53.017C15.787.025,15.782.032,15.779.04Z" transform="translate(27.069 7.82)"/>
    <path id="Shape-3" data-name="Shape" d="M0,9.332H2.316V7.965A1.07,1.07,0,0,1,3.349,6.874L18.22,6.446l.039-.1c.01-.022.02-.043.031-.064a1.217,1.217,0,0,1,.2-.265l.165-.138a1.085,1.085,0,0,1,.318-.157l.087-.024a1.019,1.019,0,0,1,.12-.021l.1-.008.878-.029V0H0V9.332Z" transform="translate(23.235 0.685)"/>
    <path id="Shape-4" data-name="Shape" d="M14.989,5.784V3.426H7.8V0H0V20.209H7.8V16.782h7.192V14.425h4.532l2.961-4.32-2.961-4.32Z" transform="translate(0.038 0.657)"/>
  </g>
</svg>
