<svg id="Group_10" data-name="Group 10" xmlns="http://www.w3.org/2000/svg" width="75" height="75" viewBox="0 0 75 75">
  <circle id="Oval" cx="37.5" cy="37.5" r="37.5" fill="#f0f0ee"/>
  <g id="noun_company_2881364" transform="translate(20 19)">
    <g id="Group">
      <path id="Shape" d="M0,21.643A1.632,1.632,0,0,0,.1,21.1V0L11.684,2.9a.546.546,0,0,1,.414.529V21.1a.545.545,0,0,1-.545.545Z" transform="translate(23.902 14.902)" fill="#cdcdcb"/>
      <path id="Shape-2" data-name="Shape" d="M15.611,36.013V25.584a.546.546,0,0,0-.545-.545H7.844a.546.546,0,0,0-.545.545V36.013H.545A.546.546,0,0,1,0,35.467V6.013a.546.546,0,0,1,.415-.545L22.233.013a.551.551,0,0,1,.47.115.545.545,0,0,1,.207.431V35.467a.546.546,0,0,1-.545.545Z" transform="translate(0 0.532)" fill="#cdcdcb"/>
    </g>
  </g>
</svg>
