<svg id="Group_12" data-name="Group 12" xmlns="http://www.w3.org/2000/svg" width="100" height="100" viewBox="0 0 100 100">
  <circle id="Oval" cx="50" cy="50" r="50" fill="#f5f7f8"/>
  <g id="noun_Architecture_3052852" transform="translate(20 25)">
    <g id="Group">
      <path id="Shape" d="M0,43.4l4.191-4.16L6.178,41.2a.691.691,0,0,0,.977-.977L5.18,38.251,9.1,34.362l1.986,1.966a.691.691,0,1,0,.977-.978l-1.986-1.966L14,29.495l1.986,1.966a.691.691,0,0,0,.977-.978l-1.986-1.966,3.92-3.889,2,1.955a.691.691,0,0,0,.977-.977l-1.986-1.966,3.921-3.89,1.986,1.966a.691.691,0,0,0,.977-.977l-1.986-1.966,3.92-3.89,2.008,1.966a.691.691,0,1,0,.977-.977L29.7,13.905l3.92-3.89,1.986,1.966A.691.691,0,0,0,36.587,11L34.6,9.038l3.921-3.89,1.986,1.966a.691.691,0,1,0,.977-.977L39.51,4.16,43.691,0V43.4Z" transform="translate(0 2.725)"/>
      <rect id="Rectangle-path" width="5.086" height="33.228" transform="translate(46.914 5.741)"/>
      <path id="Shape-2" data-name="Shape" d="M3.453,0H1.622A1.622,1.622,0,0,0,0,1.612V4.586H5.075V1.612A1.622,1.622,0,0,0,3.453,0Z" transform="translate(46.925 0.052)"/>
      <path id="Shape-3" data-name="Shape" d="M2.538,6.063,5.086,0H0Z" transform="translate(46.914 40.061)"/>
    </g>
  </g>
</svg>
