<svg id="Group_12" data-name="Group 12" xmlns="http://www.w3.org/2000/svg" width="100" height="100" viewBox="0 0 100 100">
  <circle id="Oval" cx="50" cy="50" r="50" fill="#f5f7f8"/>
  <g id="noun_Writing_3202082" transform="translate(28 28)">
    <g id="Group">
      <path id="Shape" d="M1.462,42.3A1.457,1.457,0,0,1,0,40.842V1.462A1.456,1.456,0,0,1,1.462,0H34.07a1.456,1.456,0,0,1,1.463,1.462V16.087l-10.4,11.375a3.562,3.562,0,0,0-.921,2.166l-.325,4.658a3.061,3.061,0,0,0,.812,2.438,3.2,3.2,0,0,0,2.329,1.029,1.673,1.673,0,0,0,.542-.054l4.6-.759a3.231,3.231,0,0,0,2.058-1.192l1.3-1.409v6.5A1.457,1.457,0,0,1,34.07,42.3Z" transform="translate(0.271 0.488)"/>
      <path id="Shape-2" data-name="Shape" d="M7.529,3.921,3.467.237a.932.932,0,0,0-1.3.054L0,2.729,5.417,7.658,7.637,5.221A.936.936,0,0,0,7.529,3.921Z" transform="translate(43.875 8.863)"/>
      <path id="Shape-3" data-name="Shape" d="M0,6.879a.7.7,0,0,0,.813.758l4.6-.758a1.236,1.236,0,0,0,.65-.325L7.534,4.929,2.117,0,.655,1.625a1,1,0,0,0-.271.65Z" transform="translate(26.645 28.112)"/>
      <path id="Shape-4" data-name="Shape" d="M11.754,0,0,12.837H0l5.417,4.983,11.7-12.838L11.754,0Z" transform="translate(30.442 13.379)"/>
    </g>
  </g>
</svg>
