<svg id="Group_12" data-name="Group 12" xmlns="http://www.w3.org/2000/svg" width="100" height="100" viewBox="0 0 100 100">
  <circle id="Oval" cx="50" cy="50" r="50" fill="#f5f7f8"/>
  <g id="noun_marketing_1275173" transform="translate(24 28)">
    <g id="Group">
      <path id="Shape" d="M0,2.383v8.5a2.393,2.393,0,0,0,2.383,2.394H4.344V0H2.383A2.39,2.39,0,0,0,0,2.383Z" transform="translate(0 11.9)"/>
      <path id="Shape-2" data-name="Shape" d="M1.723,0A5.406,5.406,0,0,0,0,.271V11.158a5.773,5.773,0,0,0,1.723.26A5.709,5.709,0,0,0,1.723,0Z" transform="translate(44.579 12.832)"/>
      <rect id="Rectangle-path" width="5.893" height="17.951" transform="translate(6.511 9.56)"/>
      <path id="Shape-3" data-name="Shape" d="M2.936,0H0V9.263a3.518,3.518,0,0,0,3.51,3.521H4.518a3.518,3.518,0,0,0,3.51-3.521V.011H2.936Z" transform="translate(9.479 29.678)"/>
      <path id="Shape-4" data-name="Shape" d="M11.527,8.688H0V26.65H11.527c9.609,0,15.275,7.248,16.3,8.7V0C26.8,1.452,21.168,8.688,11.527,8.688Z" transform="translate(14.582 0.872)"/>
    </g>
  </g>
</svg>
