<svg id="Group_12" data-name="Group 12" xmlns="http://www.w3.org/2000/svg" width="100" height="100" viewBox="0 0 100 100">
  <circle id="Oval" cx="50" cy="50" r="50" fill="#f5f7f8"/>
  <g id="noun_Administration_2086166" transform="translate(24 24)">
    <g id="Group">
      <path id="Shape" d="M22.56,51.44a.8.8,0,0,1-.8-.561l-1.2-4.32A22.651,22.651,0,0,1,14.64,44.08l-3.92,2.16a.851.851,0,0,1-.96-.16L5.28,41.6a.739.739,0,0,1-.16-.959L7.28,36.8A22.672,22.672,0,0,1,4.8,30.88L.56,29.68a.871.871,0,0,1-.56-.8V22.56a.8.8,0,0,1,.56-.8l4.24-1.2A22.653,22.653,0,0,1,7.28,14.64L5.12,10.8a.85.85,0,0,1,.16-.96L9.76,5.36a.74.74,0,0,1,.96-.16l3.92,2.16A21.175,21.175,0,0,1,20.56,4.88L21.76.56a.87.87,0,0,1,.8-.56h6.32a.8.8,0,0,1,.8.56l1.2,4.32a20.046,20.046,0,0,1,5.92,2.4L40.72,5.12a.85.85,0,0,1,.96.16L46.16,9.76a.742.742,0,0,1,.16.96l-2.16,3.84a22.644,22.644,0,0,1,2.479,5.92c1.76.48,4.081,1.12,4.24,1.2.4.08.64.4.561.96v6.24a.8.8,0,0,1-.561.8l-4.24,1.2A22.669,22.669,0,0,1,44.16,36.8l2.16,3.84a.851.851,0,0,1-.16.959l-4.48,4.48a.85.85,0,0,1-.96.16L36.8,44.08a20.242,20.242,0,0,1-5.92,2.479l-1.2,4.32a.964.964,0,0,1-.8.561Z" transform="translate(0.48 0)"/>
      <g id="Group-2" data-name="Group" transform="translate(16.8 17.6)">
        <path id="Shape-2" data-name="Shape" d="M0,4.48A4.48,4.48,0,1,1,4.48,8.96,4.473,4.473,0,0,1,0,4.48Z" transform="translate(5.12 0.56)"/>
        <path id="Shape-3" data-name="Shape" d="M18.351,6.331a.988.988,0,0,1-.64.32H.831a.728.728,0,0,1-.64-.32.622.622,0,0,1-.16-.64A9.482,9.482,0,0,1,3.711.171a.839.839,0,0,1,1.04.08,6,6,0,0,0,4.48,2,6,6,0,0,0,4.48-2,.748.748,0,0,1,1.04-.08,9.737,9.737,0,0,1,3.68,5.52A.484.484,0,0,1,18.351,6.331Z" transform="translate(0.289 8.789)"/>
      </g>
    </g>
  </g>
</svg>
