<svg id="Group_12" data-name="Group 12" xmlns="http://www.w3.org/2000/svg" width="100" height="100" viewBox="0 0 100 100">
  <circle id="Oval" cx="50" cy="50" r="50" fill="#f5f7f8"/>
  <g id="noun_Electric_switch_2031371" data-name="noun_Electric switch_2031371" transform="translate(24 76) rotate(-90)">
    <g id="Group">
      <path id="Shape" d="M2.356,0A2.358,2.358,0,0,0,0,2.356V18.85a2.356,2.356,0,0,0,4.713,0V2.356A2.47,2.47,0,0,0,2.356,0Z" transform="translate(38.756 0.162)"/>
      <path id="Shape-2" data-name="Shape" d="M6.988,2.194A2.185,2.185,0,0,0,4.794,0H0V4.469H4.794A2.31,2.31,0,0,0,6.988,2.194Z" transform="translate(45.013 4.144)"/>
      <path id="Shape-3" data-name="Shape" d="M4.794,0H0V4.469H4.794A2.185,2.185,0,0,0,6.988,2.275,2.2,2.2,0,0,0,4.794,0Z" transform="translate(45.013 12.919)"/>
      <path id="Shape-4" data-name="Shape" d="M3.413,49.156A3.433,3.433,0,0,1,0,45.743V22.994a3.433,3.433,0,0,1,3.413-3.413H13.975V16.412a1.977,1.977,0,0,0-1.95-1.95H7.881a3.493,3.493,0,1,1,0-6.987H21.613V6.094a.711.711,0,0,1,.488-.732l3.25-1.219A8.262,8.262,0,0,1,32.5,0h4.631V16.412H32.419a8.1,8.1,0,0,1-7.15-4.144l-3.25-1.138a.821.821,0,0,1-.487-.731V9.019H7.881a1.95,1.95,0,1,0,0,3.9h4.144A3.537,3.537,0,0,1,15.6,16.412v3.169H26.162a3.433,3.433,0,0,1,3.413,3.413V45.743a3.433,3.433,0,0,1-3.413,3.413Z" transform="translate(0 2.519)"/>
      <circle id="Oval-2" data-name="Oval" cx="0.813" cy="0.813" r="0.813" transform="translate(18.362 38.431)"/>
      <path id="Shape-5" data-name="Shape" d="M0,9.588a9.547,9.547,0,1,1,9.588,9.588A9.536,9.536,0,0,1,0,9.588Z" transform="translate(5.281 27.381)"/>
      <circle id="Oval-3" data-name="Oval" cx="0.813" cy="0.813" r="0.813" transform="translate(10.075 38.431)"/>
    </g>
  </g>
</svg>
