<svg id="Group_12" data-name="Group 12" xmlns="http://www.w3.org/2000/svg" width="100" height="100" viewBox="0 0 100 100">
  <circle id="Oval" cx="50" cy="50" r="50" fill="#f5f7f8"/>
  <g id="noun_creative_3156106" transform="translate(23 25)">
    <g id="Group">
      <path id="Shape" d="M15.87,10.552H8.835a1.759,1.759,0,0,1,0-3.517H15.87A3.517,3.517,0,1,0,15.87,0H0A18.575,18.575,0,0,1,.728,1.759H15.87a1.759,1.759,0,1,1,0,3.517H8.835a3.517,3.517,0,0,0,0,7.034H15.87a1.76,1.76,0,0,1,1.759,1.759V28.138A1.76,1.76,0,0,1,15.87,29.9h-4.4v1.759h4.4a3.521,3.521,0,0,0,3.517-3.517V14.069A3.521,3.521,0,0,0,15.87,10.552Z" transform="translate(33.372 8.793)"/>
      <path id="Shape-2" data-name="Shape" d="M24.621,35.173V21.69l-3.078-4.1H21.1V8.794H17.587V5.276h-1.76V1.759H14.069V5.276H12.31V8.794H8.793V35.173H8.719a9.647,9.647,0,0,0-3.2-6.078,16.708,16.708,0,1,1,22.365.01,9.844,9.844,0,0,0-3.173,6.068Z" transform="translate(0 0)"/>
      <path id="Shape-3" data-name="Shape" d="M0,0V1.759H7.914L6.595,0Z" transform="translate(14.069 19.345)"/>
      <path id="Shape-4" data-name="Shape" d="M0,24.621H1.759V7.034H8.793V0H0Z" transform="translate(10.552 10.552)"/>
      <rect id="Rectangle-path" width="1.759" height="1.759" transform="translate(14.069 7.034)"/>
      <path id="Shape-5" data-name="Shape" d="M0,12.31V0H8.793V12.31Z" transform="translate(14.069 22.862)"/>
      <path id="Shape-6" data-name="Shape" d="M22.862.879A.88.88,0,0,0,21.983,0H.879a.879.879,0,0,0,0,1.759h21.1A.88.88,0,0,0,22.862.879Z" transform="translate(5.276 40.448)"/>
      <path id="Shape-7" data-name="Shape" d="M0,.879a.88.88,0,0,0,.879.879h21.1a.879.879,0,0,0,0-1.759H.879A.88.88,0,0,0,0,.879Z" transform="translate(5.276 36.931)"/>
      <path id="Shape-8" data-name="Shape" d="M7.862,7.034A7.922,7.922,0,0,0,15.724,0H0A7.922,7.922,0,0,0,7.862,7.034Z" transform="translate(8.845 43.966)"/>
      <path id="Shape-9" data-name="Shape" d="M16.278,8.485a9.633,9.633,0,0,0-.62-1.48l-.224-.433,1.1-1.842L13.766,1.966l-1.842,1.1-.433-.223a9.653,9.653,0,0,0-1.483-.619l-.464-.149L9.019,0H6.6A18.472,18.472,0,0,1,4.47,2.274,8.081,8.081,0,0,0,1.982,6.587a7.039,7.039,0,1,1-.261,9.388A9.6,9.6,0,0,1,0,20.533l.363.363,1.842-1.1.433.223a9.653,9.653,0,0,0,1.483.619l.464.149.525,2.071H9.018l.526-2.07.464-.149a9.653,9.653,0,0,0,1.483-.619l.433-.223,1.842,1.1,2.764-2.764-1.1-1.843.225-.434a9.678,9.678,0,0,0,.619-1.48l.148-.464,2.07-.527V9.477l-2.07-.527Z" transform="translate(24.591 28.138)"/>
    </g>
  </g>
</svg>
