<svg xmlns="http://www.w3.org/2000/svg" width="24.905" height="24.985" viewBox="0 0 24.905 24.985">
  <g id="Group_3" data-name="Group 3" transform="translate(0)">
    <path id="Path" d="M13.011.273,14.6,2.1l2.379-1.017a.71.71,0,0,1,.952.448l.725,2.359,2.58.047a.713.713,0,0,1,.693.8L21.645,7.2l2.34,1.1a.718.718,0,0,1,.342.949c-.32.667-.9,1.526-1.288,2.185L24.733,13.4a.72.72,0,0,1-.128,1.052l-2,1.427.755,2.491a.715.715,0,0,1-.543.907l-2.4.483L20.1,22.344a.714.714,0,0,1-.913.6l-2.34-.534-1.331,2.229a.706.706,0,0,1-1.032.206l-1.966-1.48L10.4,24.855a.7.7,0,0,1-1.024-.239l-1.2-2.154-2.537.5a.71.71,0,0,1-.842-.681l-.219-2.417-2.517-.588a.716.716,0,0,1-.513-.926l.789-2.341L.282,14.438a.719.719,0,0,1-.052-1.1l1.624-1.772L.6,9.291A.72.72,0,0,1,.945,8.285L3.2,7.312,2.97,4.718a.716.716,0,0,1,.779-.775l2.388.032.841-2.461a.709.709,0,0,1,1.005-.4l2.19,1.019,1.761-1.9A.706.706,0,0,1,13.011.273Z" fill="#1cabe9"/>
    <path id="Path-2" data-name="Path" d="M.308,4.8A1.017,1.017,0,0,1,1.741,3.357l3.171,3.2L10.466.347a1.016,1.016,0,0,1,1.5,1.365L5.734,8.679a1.006,1.006,0,0,1-1.5.078L.308,4.8Z" transform="translate(6.667 8.333)" fill="#fff"/>
  </g>
</svg>
