<svg xmlns="http://www.w3.org/2000/svg" width="54.093" height="55.547" viewBox="0 0 54.093 55.547">
  <g id="Group_7" data-name="Group 7" transform="translate(-30.449 -461.391)">
    <path id="Shape" d="M9.328,15.078C3.369,10.313,3.751,2.109,3.751,2.031A2.376,2.376,0,0,0,3.293.625,1.618,1.618,0,0,0,1.994,0H1.842A1.863,1.863,0,0,0,.008,1.8c0,.391-.535,10.156,7.028,16.25a2.028,2.028,0,0,0,1.146.391,1.865,1.865,0,0,0,1.451-.7A1.906,1.906,0,0,0,9.328,15.078Z" transform="translate(36.256 491.234)"/>
    <path id="Shape-2" data-name="Shape" d="M10,1.8A1.863,1.863,0,0,0,8.169,0H8.016a1.865,1.865,0,0,0-1.3.625,2.152,2.152,0,0,0-.458,1.328c0,.078.306,8.281-5.576,13.047a1.981,1.981,0,0,0-.306,2.656,1.865,1.865,0,0,0,1.451.7,2.028,2.028,0,0,0,1.146-.391C10.46,12.031,10,2.266,10,1.8Z" transform="translate(68.734 491.234)"/>
    <ellipse id="Oval" cx="5.729" cy="6.641" rx="5.729" ry="6.641" transform="translate(51.771 489.906)"/>
    <path id="Shape-3" data-name="Shape" d="M14.065.293l-2.6,2.656a.866.866,0,0,1-1.3,0L7.572.293A.921.921,0,0,0,6.579.136,10.9,10.9,0,0,0,.01,9.433a.831.831,0,0,0,.84.938H20.864a.879.879,0,0,0,.84-.938,11.035,11.035,0,0,0-6.569-9.3A.809.809,0,0,0,14.065.293Z" transform="translate(46.643 506.567)"/>
    <ellipse id="Oval-2" data-name="Oval" cx="5.729" cy="6.641" rx="5.729" ry="6.641" transform="translate(67.965 461.391)"/>
    <path id="Shape-4" data-name="Shape" d="M14.065.238l-2.6,2.656a.866.866,0,0,1-1.3,0L7.572.238A.921.921,0,0,0,6.579.081,10.9,10.9,0,0,0,.01,9.378a.819.819,0,0,0,.764.937H20.788a.879.879,0,0,0,.84-.937,11.035,11.035,0,0,0-6.569-9.3A.9.9,0,0,0,14.065.238Z" transform="translate(62.914 478.028)"/>
    <ellipse id="Oval-3" data-name="Oval" cx="5.729" cy="6.641" rx="5.729" ry="6.641" transform="translate(35.576 461.391)"/>
    <path id="Shape-5" data-name="Shape" d="M14.065.238l-2.6,2.656a.866.866,0,0,1-1.3,0L7.572.238A.921.921,0,0,0,6.579.081,10.9,10.9,0,0,0,.01,9.378a.831.831,0,0,0,.84.937H20.864a.879.879,0,0,0,.84-.937,11.035,11.035,0,0,0-6.569-9.3A1.026,1.026,0,0,0,14.065.238Z" transform="translate(30.449 478.028)"/>
  </g>
</svg>
