<svg xmlns="http://www.w3.org/2000/svg" width="62.91" height="19.733" viewBox="0 0 62.91 19.733">
  <g id="Group" transform="translate(0 0.387)">
    <path id="Fill_2" data-name="Fill 2" d="M0,18.368,3.185,0H8.278L5.091,18.368H0" transform="translate(22.162 0.319)" fill="#004f8b"/>
    <path id="Fill_3" data-name="Fill 3" d="M15.283.771A13.355,13.355,0,0,0,10.718,0C5.686,0,2.14,2.491,2.11,6.061c-.028,2.639,2.531,4.112,4.463,4.99,1.982.9,2.649,1.474,2.64,2.278-.013,1.231-1.583,1.794-3.047,1.794a10.835,10.835,0,0,1-4.794-.964l-.656-.292L0,17.979a16.374,16.374,0,0,0,5.674.98c5.354,0,8.83-2.463,8.869-6.275.019-2.089-1.338-3.68-4.276-4.99C8.486,6.844,7.4,6.277,7.408,5.416c0-.764.923-1.58,2.917-1.58a9.535,9.535,0,0,1,3.812.7l.456.212.69-3.981" transform="translate(29.958 0.413) rotate(-3)" fill="#004f8b"/>
    <path id="Fill_4" data-name="Fill 4" d="M5.348,18.357H0L7.565,1.523A2.529,2.529,0,0,1,10.231,0h3.936L18.29,18.355H13.564c0-.007-.461-2.079-.62-2.753l-3.577,0-2.946,0c-.195.489-1.063,2.738-1.072,2.76ZM9.916,6.7c-.016.04-1.611,4.084-2.029,5.135h4.228l-1.179-5.3-.345-1.584c-.133.357-.314.819-.46,1.19-.155.4-.218.558-.217.565Z" transform="translate(44.62 0.337)" fill="#004f8b"/>
    <path id="Fill_5" data-name="Fill 5" d="M12.572,0,7.585,12.526,7.054,9.98A14.418,14.418,0,0,0,0,2.275L4.56,18.339l5.389-.006L17.967,0h-5.4" transform="translate(5.318 0.333)" fill="#004f8b"/>
    <path id="Fill_6" data-name="Fill 6" d="M8.278,0H.065L0,.382C6.39,1.9,10.618,5.576,12.373,9.991L10.587,1.551A2.131,2.131,0,0,0,8.278,0" transform="translate(0 0.321)" fill="#ed9f2d"/>
  </g>
</svg>
