<svg xmlns="http://www.w3.org/2000/svg" width="16.934" height="13.484" viewBox="0 0 16.934 13.484">
  <g id="noun_job_3266612" transform="translate(0.001 -0.724)">
    <path id="Shape" d="M.156,13.331A.529.529,0,0,1,0,12.957V6.042A9.673,9.673,0,0,0,6.184,8.847v.81a.507.507,0,0,0,0,.052c0,.016,0,.031.006.047s0,.021.007.031a.139.139,0,0,0,0,.015.4.4,0,0,0,.014.043s0,0,0,0a.4.4,0,0,0,.022.049.325.325,0,0,0,.02.035l.01.017a.05.05,0,0,1,0,.007l.023.03a.378.378,0,0,0,.035.04l.039.036a.54.54,0,0,0,.343.126h3.507a.534.534,0,0,0,.517-.426c0-.017.005-.035.007-.052a.526.526,0,0,0,0-.053V8.843a9.591,9.591,0,0,0,6.184-2.8v6.91a.529.529,0,0,1-.528.527H.528A.525.525,0,0,1,.156,13.331Zm7.088-4.2V7.754H9.691V9.128ZM0,4.343V3.094a.53.53,0,0,1,.476-.527H4.57V.527A.529.529,0,0,1,5.048,0h6.788a.529.529,0,0,1,.528.527V2.567h4.042a.529.529,0,0,1,.528.527V4.5a8.212,8.212,0,0,1-6.184,3.268V7.227a.529.529,0,0,0-.528-.531H6.715a.529.529,0,0,0-.531.531v.544C3.353,7.407,1.4,6.471,0,4.343Z" transform="translate(-0.001 0.724)"/>
  </g>
</svg>
