<svg xmlns="http://www.w3.org/2000/svg" width="18.982" height="17.99" viewBox="0 0 18.982 17.99">
  <g id="youtube" transform="translate(0 -0.01)">
    <path id="Path" d="M16.451.48,12.264.119a32.317,32.317,0,0,0-5.551,0L2.526.48A2.737,2.737,0,0,0,0,3.212V6.934A2.737,2.737,0,0,0,2.531,9.666l4.187.36c.921.078,1.848.119,2.775.119s1.855-.039,2.775-.119l4.187-.36a2.737,2.737,0,0,0,2.526-2.733V3.211A2.737,2.737,0,0,0,16.451.48Z" transform="translate(0 7.855)" fill="#fff"/>
    <g id="Group" transform="translate(1.636 10.145)">
      <path id="Path-2" data-name="Path" d="M.388,5.539A.392.392,0,0,1,0,5.143V.4A.392.392,0,0,1,.388,0,.392.392,0,0,1,.776.4V5.143A.392.392,0,0,1,.388,5.539Z" transform="translate(1.576 0.023)" fill="#8e8e8e"/>
      <path id="Path-3" data-name="Path" d="M3.491.791H.388A.392.392,0,0,1,0,.4.392.392,0,0,1,.388,0h3.1a.392.392,0,0,1,.388.4A.392.392,0,0,1,3.491.791Z" transform="translate(0.024 0.023)" fill="#8e8e8e"/>
    </g>
    <g id="Group-2" data-name="Group" transform="translate(0.655)">
      <path id="Path-4" data-name="Path" d="M2.776,3.979a.4.4,0,0,1-.317-.159L.079.637A.4.4,0,1,1,.714.159h0L2.776,2.918,4.838.159a.4.4,0,1,1,.634.478h0L3.093,3.82A.4.4,0,0,1,2.776,3.979Z" transform="translate(0.012 0.01)" fill="#fff"/>
      <path id="Path-5" data-name="Path" d="M.4,3.979a.4.4,0,0,1-.4-.4V.4A.4.4,0,1,1,.793.4V3.581A.4.4,0,0,1,.4,3.979Z" transform="translate(2.392 3.194)" fill="#fff"/>
      <path id="Shape" d="M0,3.183v-.8a2.379,2.379,0,1,1,4.758,0v.8A2.379,2.379,0,1,1,0,3.183Z" transform="translate(4.771 1.602)" fill="#fff"/>
      <path id="Path-6" data-name="Path" d="M2.379,5.571A2.383,2.383,0,0,1,0,3.183V.4A.4.4,0,1,1,.793.4V3.183a1.586,1.586,0,1,0,3.172,0V.4a.4.4,0,1,1,.793,0V3.183A2.383,2.383,0,0,1,2.379,5.571Z" transform="translate(10.322 1.602)" fill="#fff"/>
      <path id="Path-7" data-name="Path" d="M1.983,3.183C0,3.183,0,1.087,0,.4A.4.4,0,1,1,.793.4c0,1.651.476,1.99,1.19,1.99a.4.4,0,0,1,0,.8Z" transform="translate(14.287 3.99)" fill="#fff"/>
    </g>
    <g id="Group-3" data-name="Group" transform="translate(5.564 10.145)">
      <path id="Path-8" data-name="Path" d="M1.566,3.956A1.574,1.574,0,0,1,0,2.374V.4A.394.394,0,0,1,.392,0,.394.394,0,0,1,.783.4V2.374a.783.783,0,1,0,1.566,0V.4a.392.392,0,1,1,.783,0V2.374A1.574,1.574,0,0,1,1.566,3.956Z" transform="translate(0.012 1.605)" fill="#8e8e8e"/>
      <path id="Path-9" data-name="Path" d="M.392,5.539A.394.394,0,0,1,0,5.143V.4A.394.394,0,0,1,.392,0,.394.394,0,0,1,.783.4V5.143A.394.394,0,0,1,.392,5.539Z" transform="translate(3.927 0.023)" fill="#8e8e8e"/>
      <path id="Shape-2" data-name="Shape" d="M1.566,3.956A1.574,1.574,0,0,1,0,2.374V1.582A1.574,1.574,0,0,1,1.566,0,1.574,1.574,0,0,1,3.132,1.582v.4a.394.394,0,0,1-.391.4H.783a.788.788,0,0,0,.783.791h.783a.4.4,0,0,1,0,.791Z" transform="translate(8.625 1.605)" fill="#8e8e8e"/>
      <path id="Shape-3" data-name="Shape" d="M0,1.978A1.968,1.968,0,0,1,1.958,0,1.968,1.968,0,0,1,3.915,1.978,1.968,1.968,0,0,1,1.958,3.956,1.968,1.968,0,0,1,0,1.978Z" transform="translate(3.927 1.605)" fill="#8e8e8e"/>
    </g>
  </g>
</svg>
